<?xml version="1.0" encoding="UTF-8" standalone="no"?>
<!DOCTYPE svg PUBLIC "-//W3C//DTD SVG 1.1//EN" "http://www.w3.org/Graphics/SVG/1.1/DTD/svg11.dtd">
<svg width="100%" height="100%" viewBox="0 0 386 242" version="1.1" xmlns="http://www.w3.org/2000/svg" xmlns:xlink="http://www.w3.org/1999/xlink" xml:space="preserve" xmlns:serif="http://www.serif.com/" style="fill-rule:evenodd;clip-rule:evenodd;stroke-linecap:round;stroke-linejoin:round;stroke-miterlimit:1.5;">
    <g transform="matrix(1,0,0,1,-423.417,-381.347)">
        <g transform="matrix(0.78928,0,0,0.753794,146.923,130.369)">
            <rect x="350.312" y="332.953" width="488.336" height="320.883" style="fill:none;"/>
            <clipPath id="_clip1">
                <rect x="350.312" y="332.953" width="488.336" height="320.883"/>
            </clipPath>
            <g clip-path="url(#_clip1)">
                <g transform="matrix(1.26698,0,0,1.32662,-187.623,-168.862)">
                    <g transform="matrix(1,0,0,1,-35.3967,-107.537)">
                        <g transform="matrix(1,0,0,1,36.2705,108.701)">
                            <path d="M665.881,583.195C664.096,583.367 662.359,584.135 660.993,585.5C657.871,588.622 657.871,593.692 660.993,596.814C661.01,596.83 661.026,596.847 661.042,596.863C661.447,597.267 661.884,597.62 662.346,597.92C663.063,600.431 665.377,602.271 668.117,602.271C668.827,602.271 669.508,602.148 670.141,601.921C671.514,604.35 674.122,605.991 677.11,605.991L677.158,605.991C678.811,605.991 680.347,605.489 681.623,604.629C685.875,604.445 689.271,600.934 689.271,596.637C689.271,594.108 688.095,591.852 686.261,590.385C686.372,589.854 686.43,589.304 686.43,588.74C686.43,584.325 682.846,580.74 678.43,580.74L678.382,580.74C678.092,580.74 677.806,580.755 677.524,580.785C676.427,579.35 674.698,578.424 672.754,578.424C670.988,578.424 669.5,578.809 668.031,579.939C666.929,580.787 666.202,581.944 665.881,583.195Z" style="fill:rgb(180,208,183);fill-opacity:0.56;"/>
                        </g>
                        <g transform="matrix(1,0,0,1,32.3363,110.567)">
                            <path d="M642.979,570.704C640.916,572.151 639.567,574.547 639.567,577.256C639.567,581.672 643.152,585.256 647.567,585.256L647.616,585.256C649.334,585.256 650.927,584.713 652.231,583.79C652.524,583.822 652.822,583.839 653.123,583.839L653.169,583.839C654.292,583.839 655.361,583.607 656.331,583.189C657.331,583.638 658.438,583.888 659.604,583.888C664.019,583.888 667.604,580.303 667.604,575.888L667.604,575.099C667.604,574.074 667.411,573.094 667.059,572.194C667.225,571.553 667.314,570.88 667.314,570.187C667.314,567.077 665.987,564.52 662.887,562.89C662.094,562.473 659.079,562.146 657.535,562.002C655.558,561.588 653.522,561.95 651.829,562.948C651.572,562.5 651.252,562.079 650.869,561.697C650.853,561.68 650.837,561.664 650.82,561.648C648.479,559.306 644.677,559.306 642.335,561.648C639.994,563.989 639.994,567.791 642.335,570.133C642.352,570.149 642.368,570.166 642.384,570.182C642.573,570.371 642.772,570.545 642.979,570.704Z" style="fill:rgb(180,208,183);fill-opacity:0.56;"/>
                        </g>
                        <g transform="matrix(1,0,0,1,31.6304,109.042)">
                            <path d="M627.543,544.694C625.755,543.481 621.552,543.22 621.552,543.22C621.552,543.22 621.885,543.128 622.074,543.091C620.567,543.384 619.302,544.218 618.442,545.353C618.382,545.351 618.322,545.351 618.263,545.351C614.951,545.351 612.263,548.039 612.263,551.351C612.263,553.388 613.28,555.19 614.835,556.273C615.776,557.45 617.109,558.204 618.542,558.442C618.406,558.943 618.334,559.47 618.334,560.013L618.334,560.059C618.334,563.371 621.022,566.059 624.334,566.059C624.812,566.059 625.278,566.003 625.724,565.897C626.185,565.99 626.658,566.029 627.133,566.011C627.508,568.963 630.032,571.248 633.085,571.248L633.134,571.248C636.446,571.248 639.134,568.56 639.134,565.248C639.134,565.153 639.132,565.059 639.128,564.965C640.603,563.973 641.615,562.344 641.767,560.474C643.65,559.461 644.93,557.472 644.93,555.187C644.93,551.875 642.242,549.187 638.93,549.187L638.403,549.187C638.345,549.187 638.286,549.187 638.229,549.189C638.256,548.956 638.27,548.719 638.27,548.478L638.27,548.388C638.27,545.076 635.582,542.388 632.27,542.388C630.352,542.388 628.642,543.29 627.543,544.694Z" style="fill:rgb(180,208,183);fill-opacity:0.56;"/>
                        </g>
                        <g transform="matrix(1,0,0,1,35.6335,109.417)">
                            <path d="M696.509,603.512C696.083,603.711 695.679,603.96 695.307,604.256C693.255,602.101 689.868,601.757 687.409,603.567C687.396,603.576 687.383,603.586 687.37,603.596C684.703,605.559 684.131,609.318 686.095,611.985C686.151,612.061 686.209,612.136 686.268,612.209C685.668,613.882 685.819,615.794 686.805,617.39C685.889,619.322 686.037,621.683 687.392,623.524C689.355,626.19 693.114,626.762 695.781,624.798C695.922,624.694 696.064,624.59 696.206,624.486C696.253,624.451 696.299,624.416 696.344,624.38C696.46,624.585 696.59,624.784 696.732,624.978C696.75,625.002 696.768,625.027 696.786,625.051C698.749,627.718 702.508,628.289 705.175,626.326C706.72,625.188 707.562,623.448 707.615,621.666C709.774,621.583 713.314,619.301 713.314,619.301C713.314,619.301 713.1,619.573 712.969,619.714C714.009,618.585 714.533,617.163 714.553,615.739C714.603,615.705 714.651,615.67 714.699,615.635C717.366,613.672 717.937,609.913 715.974,607.246C714.766,605.605 712.878,604.758 710.984,604.807C709.529,604.417 708.008,604.6 706.713,605.258C706.525,604.774 706.271,604.307 705.949,603.869C705.94,603.857 705.931,603.845 705.922,603.832C703.959,601.165 700.2,600.594 697.533,602.557C697.148,602.841 696.806,603.162 696.509,603.512Z" style="fill:rgb(180,208,183);fill-opacity:0.56;"/>
                        </g>
                    </g>
                    <path d="M612.187,224.019C601.273,228.759 589.414,232.141 580.251,239.642C552.044,262.732 522.311,299.576 525.694,338.752C528.325,369.226 545.846,400.863 557.733,428.086C567.039,449.398 572.278,474.069 583.904,494.294C592.83,509.822 597.217,533.269 606.919,548.283C615.197,561.092 621.136,569.956 635.004,581.509C647.268,591.726 666.959,598.931 676.577,609.783C692.602,627.863 711.365,635.476 730.253,650.841C741.451,659.95 752.429,671.68 764.674,679.289C787.074,693.21 829.46,700.527 855.436,695.289C868.658,692.623 898.265,676.838 911.996,670.02C921.744,665.18 932.124,660.809 941.112,654.575C950.902,647.785 958.507,638.476 967.365,630.623C975.349,623.546 984.113,617.094 990.724,608.604C997.267,600.199 1001.62,589.913 1007.15,580.822C1017.27,564.199 1026.2,547.127 1030.37,527.986C1032.93,516.231 1032.52,503.752 1032.54,491.826C1032.58,479.637 1033.65,466.704 1031.83,454.626C1026.2,417.335 1008.3,381.866 991.509,348.56C974.072,313.975 963.025,290.305 935.153,262.16C926.067,252.985 914.967,245.773 904.032,239.011C885.477,227.535 864.112,215.989 842.88,210.304C813.195,202.356 782.358,202.014 751.841,202.005C733.186,201.999 713.793,201.445 695.316,204.411C680.865,206.73 667.758,213.493 653.547,216.422C639.974,219.219 625.683,222.114 612.187,224.019Z" style="fill:url(#_Radial2);"/>
                    <path d="M461.593,321.742C470.277,346.984 476.827,373.029 486.723,397.856C498.267,426.818 512.183,455.069 525.269,483.351C541.695,518.849 557.502,552.451 583.518,582.513C601.138,602.875 623.232,621.082 646.373,634.544C666.458,646.228 709.122,659.951 702.427,690.944C697.236,714.971 675.867,744.83 651.533,752.086C632.439,757.78 611.101,756.757 591.433,760.833C556.736,768.024 521.834,767.45 486.891,770.734C427.078,776.355 384.196,789.591 320.113,782.849C297.236,780.443 275.956,771.909 253.734,766.659C219.787,758.64 158.829,735.909 142.65,703.459C131.793,681.682 129.471,656.931 122.278,633.982C116.355,615.084 103.007,599.732 96.978,581.051C90.575,561.209 92.201,508.281 96.836,486.33C103.177,456.301 121.178,428.882 135.093,402.022C155.012,363.575 175.13,326.722 200.711,291.654C214.804,272.335 234.261,259.678 256.407,251.49C314.294,230.09 347.832,248.226 399.03,274.112C417.91,283.657 451.079,303.369 461.342,321.754" style="fill:url(#_Radial3);"/>
                    <g>
                        <g>
                            <g transform="matrix(1,0,0,1,110.018,-247.628)">
                                <circle cx="439.719" cy="796.865" r="18.458" style="fill:rgb(145,206,207);stroke:black;stroke-width:1px;"/>
                            </g>
                            <g transform="matrix(1,0,0,1,77.3456,-205.184)">
                                <text x="465.892px" y="762.116px" style="font-family:'Inconsolata-Regular_Bold', 'Inconsolata', monospace;font-size:24px;">A</text>
                            </g>
                        </g>
                        <g>
                            <g transform="matrix(1,0,0,1,58.4297,-354.185)">
                                <circle cx="439.719" cy="796.865" r="18.458" style="fill:rgb(210,183,170);stroke:black;stroke-width:1px;"/>
                            </g>
                            <g transform="matrix(1,0,0,1,26.0354,-311.117)">
                                <text x="465.892px" y="762.116px" style="font-family:'Inconsolata-Regular_Bold', 'Inconsolata', monospace;font-size:24px;">C</text>
                            </g>
                        </g>
                        <g>
                            <g transform="matrix(1,0,0,1,133.693,-325.365)">
                                <circle cx="439.719" cy="796.865" r="18.458" style="fill:rgb(210,183,170);stroke:black;stroke-width:1px;"/>
                            </g>
                            <g transform="matrix(1,0,0,1,102.028,-282.703)">
                                <text x="465.892px" y="762.116px" style="font-family:'Inconsolata-Regular_Bold', 'Inconsolata', monospace;font-size:24px;">B</text>
                            </g>
                        </g>
                        <g transform="matrix(1,0,0,1,0,5.66929)">
                            <g transform="matrix(1,0,0,1,196.891,-280.734)">
                                <circle cx="439.719" cy="796.865" r="18.458" style="fill:rgb(145,206,207);stroke:black;stroke-width:1px;"/>
                            </g>
                            <g transform="matrix(1,0,0,1,165.034,-237.478)">
                                <text x="465.892px" y="762.116px" style="font-family:'Inconsolata-Regular_Bold', 'Inconsolata', monospace;font-size:24px;">E</text>
                            </g>
                        </g>
                        <g>
                            <g transform="matrix(1,0,0,1,238.685,-258.391)">
                                <circle cx="439.719" cy="796.865" r="18.458" style="fill:white;stroke:black;stroke-width:1px;"/>
                            </g>
                            <g transform="matrix(1,0,0,1,206.685,-216.384)">
                                <text x="465.892px" y="762.116px" style="font-family:'Inconsolata-Regular_Bold', 'Inconsolata', monospace;font-size:24px;">D</text>
                            </g>
                        </g>
                        <g>
                            <g transform="matrix(1,0,0,1,302.849,-316.984)">
                                <circle cx="439.719" cy="796.865" r="18.458" style="fill:white;stroke:black;stroke-width:1px;"/>
                            </g>
                            <g transform="matrix(1,0,0,1,270.601,-274.696)">
                                <text x="465.892px" y="762.116px" style="font-family:'Inconsolata-Regular_Bold', 'Inconsolata', monospace;font-size:24px;">G</text>
                            </g>
                        </g>
                        <g>
                            <g transform="matrix(1,0,0,1,228.734,-365.768)">
                                <circle cx="439.719" cy="796.865" r="18.458" style="fill:white;stroke:black;stroke-width:1px;"/>
                            </g>
                            <g transform="matrix(1,0,0,1,197.093,-322.931)">
                                <text x="465.892px" y="762.116px" style="font-family:'Inconsolata-Regular_Bold', 'Inconsolata', monospace;font-size:24px;">F</text>
                            </g>
                        </g>
                    </g>
                </g>
            </g>
        </g>
    </g>
    <defs>
        <radialGradient id="_Radial2" cx="0" cy="0" r="1" gradientUnits="userSpaceOnUse" gradientTransform="matrix(338.055,-64.9187,64.9187,338.055,611.618,500.203)"><stop offset="0" style="stop-color:rgb(126,128,128);stop-opacity:0.2"/><stop offset="1" style="stop-color:rgb(5,110,31);stop-opacity:0"/></radialGradient>
        <radialGradient id="_Radial3" cx="0" cy="0" r="1" gradientUnits="userSpaceOnUse" gradientTransform="matrix(-201.845,93.5748,-93.5748,-201.845,504.95,487.05)"><stop offset="0" style="stop-color:rgb(167,132,118);stop-opacity:0.26"/><stop offset="1" style="stop-color:rgb(77,77,77);stop-opacity:0"/></radialGradient>
    </defs>
</svg>
