<?xml version="1.0" encoding="UTF-8" standalone="no"?>
<!DOCTYPE svg PUBLIC "-//W3C//DTD SVG 1.1//EN" "http://www.w3.org/Graphics/SVG/1.1/DTD/svg11.dtd">
<svg width="100%" height="100%" viewBox="0 0 485 127" version="1.1" xmlns="http://www.w3.org/2000/svg" xmlns:xlink="http://www.w3.org/1999/xlink" xml:space="preserve" xmlns:serif="http://www.serif.com/" style="fill-rule:evenodd;clip-rule:evenodd;stroke-linejoin:round;stroke-miterlimit:2;">
    <g transform="matrix(1,0,0,1,-946.000107,-2355.907687)">
        <g transform="matrix(0.339193,0,0,0.339193,11.291621,1695.288605)">
            <g transform="matrix(0.27806,0,0,0.27806,2605.748053,1861.800305)">
                <g id="j" transform="matrix(1,0,0,0.908786,-121,-539.80617)">
                    <path d="M663.782,1590.15L892.325,1144.836L1178.404,1525.052L997.542,1630.702L663.782,1590.15Z" style="fill:rgb(224,178,163);"/>
                </g>
                <g id="i" transform="matrix(1,0,0,0.908786,-121,-539.80617)">
                    <path d="M911.163,1126.736C912.323,1126.27 1369.5,936.043 1369.069,933.605L1392.086,1400.23L1200.95,1511.881L911.163,1126.736Z" style="fill:rgb(143,206,206);"/>
                </g>
                <g id="h" transform="matrix(1,0,0,0.908786,-121,-539.80617)">
                    <path d="M1394.113,933.76C1396.574,933.825 1396.493,934.469 1394.113,933.76C1392.506,933.28 1771.871,1011.276 1773.097,1010.236L1405.13,1157.104L1394.113,933.76Z" style="fill:rgb(224,178,163);"/>
                </g>
                <g id="g" transform="matrix(1,0,0,0.908786,-121,-539.80617)">
                    <path d="M1805.861,1026.421C1805.808,1027.825 2076.898,1328.516 2075.731,1326.713L1890.744,1636.392L1417.071,1399.192L1406.546,1185.802L1805.861,1026.421Z" style="fill:rgb(187,195,178);"/>
                </g>
                <g id="f" transform="matrix(1,0,0,0.908786,-121,-539.80617)">
                    <path d="M2088.445,1355.511C2098.958,1393.492 2138.633,1732.346 2133.277,1757.844L1913.773,1647.924L2088.445,1355.511Z" style="fill:rgb(143,206,206);"/>
                </g>
                <g id="e" transform="matrix(1,0,0,0.908786,-121,-539.80617)">
                    <path d="M2127.216,1785.033C2128.172,1788.115 1783.453,2297.139 1782.45,2295.78L1689.375,2204.045L1771.954,1607.129L2127.216,1785.033Z" style="fill:rgb(187,195,178);"/>
                </g>
                <g id="d" transform="matrix(1,0,0,0.908786,-121,-539.80617)">
                    <path d="M1759.066,2309.664L1463.5,2406.294L1000.467,2283.875L1114.754,2226.367L1671.249,2223.11L1759.066,2309.664Z" style="fill:rgb(224,178,163);"/>
                </g>
                <g id="c" transform="matrix(1,0,0,0.908786,-121,-539.80617)">
                    <path d="M975.213,2266.333L744.103,2014.402L660.224,1617.394L992.049,1657.711L1148.749,1983.407L1101.253,2202.912L975.213,2266.333Z" style="fill:rgb(187,195,178);"/>
                </g>
                <g id="b" transform="matrix(1,0,0,0.908786,-121,-539.80617)">
                    <path d="M1665.25,2195.636L1127.846,2198.781L1172.318,1993.249L1710.179,1870.871L1665.25,2195.636Z" style="fill:rgb(143,206,206);"/>
                </g>
                <g id="a" transform="matrix(1,0,0,0.908786,-121,-539.80617)">
                    <path d="M1405.425,1423.584L1748.304,1595.286L1714.191,1841.867L1168.657,1965.991L1016.889,1650.545L1405.425,1423.584Z" style="fill:rgb(224,178,163);"/>
                </g>
            </g>
        </g>
        <g transform="matrix(1,0,0,1,-65,-7)">
            <g transform="matrix(0.550014,0,0,0.550014,639.596753,762.274247)">
                <g transform="matrix(139.604635,0,0,139.604635,968,3039)">
                    <path d="M0.032,-0L0.032,-0.623L0.131,-0.623L0.252,-0.337L0.373,-0.624L0.472,-0.624L0.472,-0L0.374,-0L0.374,-0.435L0.276,-0.206L0.221,-0.206L0.129,-0.434L0.129,-0L0.032,-0Z" style="fill-rule:nonzero;"/>
                </g>
                <g transform="matrix(139.604635,0,0,139.604635,1040.59441,3039)">
                    <path d="M0.249,0.01C0.208,0.01 0.17,0 0.137,-0.02C0.103,-0.04 0.077,-0.069 0.057,-0.106C0.037,-0.142 0.028,-0.185 0.028,-0.233C0.028,-0.279 0.037,-0.32 0.057,-0.357C0.077,-0.394 0.103,-0.423 0.137,-0.444C0.17,-0.465 0.208,-0.476 0.249,-0.476C0.291,-0.476 0.329,-0.465 0.362,-0.444C0.396,-0.423 0.423,-0.394 0.443,-0.357C0.463,-0.32 0.472,-0.279 0.472,-0.233C0.472,-0.185 0.463,-0.143 0.443,-0.106C0.423,-0.07 0.396,-0.041 0.362,-0.02C0.329,0 0.291,0.01 0.249,0.01ZM0.249,-0.08C0.271,-0.08 0.29,-0.087 0.306,-0.1C0.322,-0.113 0.335,-0.13 0.344,-0.153C0.354,-0.176 0.359,-0.203 0.359,-0.233C0.359,-0.264 0.354,-0.292 0.344,-0.314C0.335,-0.337 0.322,-0.354 0.306,-0.367C0.29,-0.379 0.271,-0.385 0.249,-0.385C0.229,-0.385 0.211,-0.379 0.194,-0.367C0.178,-0.354 0.165,-0.337 0.156,-0.314C0.146,-0.292 0.141,-0.264 0.141,-0.233C0.141,-0.203 0.146,-0.176 0.155,-0.153C0.165,-0.13 0.177,-0.113 0.194,-0.1C0.21,-0.087 0.229,-0.08 0.249,-0.08Z" style="fill-rule:nonzero;"/>
                </g>
                <g transform="matrix(139.604635,0,0,139.604635,1110.396728,3039)">
                    <path d="M0.259,0.011C0.231,0.011 0.204,0.009 0.178,0.004C0.152,-0.002 0.128,-0.01 0.106,-0.021C0.084,-0.031 0.064,-0.045 0.045,-0.063L0.095,-0.155L0.099,-0.163L0.107,-0.158C0.109,-0.153 0.111,-0.148 0.113,-0.143C0.115,-0.137 0.12,-0.13 0.128,-0.123C0.144,-0.109 0.163,-0.098 0.185,-0.09C0.206,-0.082 0.231,-0.078 0.261,-0.078C0.279,-0.078 0.295,-0.08 0.308,-0.084C0.321,-0.089 0.331,-0.095 0.339,-0.103C0.346,-0.11 0.349,-0.119 0.349,-0.129C0.349,-0.137 0.347,-0.144 0.343,-0.15C0.339,-0.156 0.332,-0.161 0.324,-0.166C0.315,-0.171 0.304,-0.176 0.29,-0.181C0.276,-0.186 0.26,-0.191 0.24,-0.197C0.206,-0.206 0.177,-0.217 0.152,-0.23C0.127,-0.243 0.108,-0.258 0.094,-0.277C0.08,-0.295 0.074,-0.317 0.074,-0.342C0.074,-0.368 0.081,-0.391 0.096,-0.411C0.111,-0.431 0.132,-0.447 0.16,-0.459C0.187,-0.47 0.22,-0.476 0.257,-0.476C0.276,-0.476 0.294,-0.475 0.312,-0.472C0.329,-0.469 0.346,-0.465 0.361,-0.459C0.377,-0.453 0.391,-0.446 0.405,-0.436C0.419,-0.427 0.432,-0.417 0.444,-0.405L0.389,-0.328L0.382,-0.32L0.375,-0.326C0.374,-0.332 0.373,-0.337 0.37,-0.341C0.368,-0.346 0.363,-0.352 0.355,-0.36C0.341,-0.37 0.326,-0.377 0.309,-0.382C0.293,-0.386 0.276,-0.389 0.259,-0.389C0.236,-0.389 0.217,-0.385 0.2,-0.378C0.184,-0.37 0.176,-0.359 0.176,-0.344C0.176,-0.336 0.179,-0.328 0.187,-0.321C0.195,-0.314 0.207,-0.307 0.224,-0.3C0.241,-0.294 0.263,-0.287 0.291,-0.28C0.328,-0.27 0.359,-0.259 0.383,-0.246C0.406,-0.233 0.424,-0.217 0.435,-0.199C0.446,-0.181 0.451,-0.16 0.451,-0.136C0.451,-0.11 0.444,-0.085 0.429,-0.063C0.415,-0.04 0.393,-0.022 0.364,-0.009C0.336,0.005 0.301,0.011 0.259,0.011Z" style="fill-rule:nonzero;"/>
                </g>
                <g transform="matrix(139.604635,0,0,139.604635,1180.199046,3039)">
                    <path d="M0.198,0.012C0.147,0.012 0.107,-0 0.078,-0.025C0.05,-0.049 0.036,-0.08 0.036,-0.119C0.036,-0.144 0.041,-0.167 0.053,-0.188C0.064,-0.208 0.08,-0.226 0.102,-0.242C0.124,-0.257 0.152,-0.269 0.184,-0.277C0.216,-0.286 0.254,-0.29 0.296,-0.29C0.302,-0.29 0.308,-0.29 0.316,-0.29C0.324,-0.29 0.333,-0.29 0.342,-0.289C0.351,-0.289 0.36,-0.288 0.368,-0.287L0.371,-0.209C0.364,-0.21 0.356,-0.21 0.347,-0.211C0.337,-0.211 0.328,-0.211 0.319,-0.211C0.309,-0.212 0.301,-0.212 0.294,-0.212C0.267,-0.212 0.245,-0.21 0.226,-0.206C0.208,-0.202 0.193,-0.197 0.182,-0.19C0.17,-0.183 0.162,-0.174 0.157,-0.165C0.152,-0.155 0.149,-0.144 0.149,-0.133C0.149,-0.122 0.151,-0.113 0.155,-0.106C0.158,-0.099 0.163,-0.093 0.169,-0.088C0.176,-0.084 0.183,-0.081 0.192,-0.079C0.2,-0.077 0.21,-0.076 0.22,-0.076C0.24,-0.076 0.257,-0.079 0.272,-0.086C0.287,-0.092 0.3,-0.102 0.31,-0.116C0.32,-0.13 0.328,-0.147 0.333,-0.168C0.338,-0.189 0.341,-0.214 0.341,-0.243C0.341,-0.281 0.337,-0.311 0.329,-0.332C0.321,-0.353 0.309,-0.367 0.294,-0.376C0.278,-0.384 0.259,-0.388 0.236,-0.388C0.215,-0.388 0.195,-0.384 0.176,-0.378C0.157,-0.371 0.138,-0.358 0.12,-0.339L0.058,-0.407C0.084,-0.432 0.113,-0.449 0.145,-0.46C0.177,-0.471 0.209,-0.476 0.241,-0.476C0.27,-0.476 0.297,-0.473 0.323,-0.466C0.348,-0.459 0.37,-0.448 0.39,-0.432C0.409,-0.417 0.424,-0.396 0.435,-0.369C0.446,-0.342 0.451,-0.308 0.451,-0.268L0.451,-0L0.334,-0L0.334,-0.05C0.325,-0.039 0.316,-0.029 0.306,-0.021C0.296,-0.013 0.286,-0.006 0.274,-0.002C0.263,0.003 0.251,0.006 0.238,0.008C0.225,0.011 0.212,0.012 0.198,0.012Z" style="fill-rule:nonzero;"/>
                </g>
                <g transform="matrix(139.604635,0,0,139.604635,1247.209271,3039)">
                    <path d="M0.084,-0L0.084,-0.089L0.198,-0.089L0.198,-0.376L0.09,-0.376L0.09,-0.465L0.312,-0.465L0.312,-0.089L0.416,-0.089L0.416,-0L0.084,-0ZM0.25,-0.542C0.231,-0.542 0.214,-0.549 0.2,-0.562C0.186,-0.575 0.179,-0.591 0.179,-0.61C0.179,-0.63 0.186,-0.646 0.199,-0.659C0.212,-0.672 0.229,-0.678 0.25,-0.678C0.269,-0.678 0.285,-0.671 0.299,-0.658C0.314,-0.645 0.321,-0.629 0.321,-0.61C0.321,-0.591 0.314,-0.575 0.299,-0.562C0.285,-0.549 0.269,-0.542 0.25,-0.542Z" style="fill-rule:nonzero;"/>
                </g>
                <g transform="matrix(139.604635,0,0,139.604635,1311.427403,3039)">
                    <path d="M0.278,0.012C0.244,0.012 0.213,0.006 0.183,-0.006C0.154,-0.018 0.129,-0.035 0.107,-0.056C0.086,-0.078 0.069,-0.103 0.057,-0.132C0.045,-0.161 0.039,-0.194 0.039,-0.229C0.039,-0.263 0.045,-0.295 0.057,-0.325C0.069,-0.355 0.086,-0.381 0.107,-0.404C0.129,-0.426 0.154,-0.444 0.183,-0.456C0.213,-0.469 0.244,-0.476 0.279,-0.476C0.322,-0.476 0.359,-0.468 0.391,-0.452C0.423,-0.436 0.448,-0.414 0.467,-0.386L0.398,-0.31L0.39,-0.316C0.39,-0.322 0.389,-0.327 0.388,-0.333C0.386,-0.338 0.382,-0.345 0.375,-0.353C0.362,-0.366 0.348,-0.374 0.333,-0.378C0.317,-0.383 0.3,-0.385 0.28,-0.385C0.263,-0.385 0.247,-0.382 0.232,-0.375C0.217,-0.368 0.204,-0.358 0.192,-0.344C0.18,-0.331 0.171,-0.315 0.164,-0.296C0.157,-0.276 0.154,-0.254 0.154,-0.229C0.154,-0.207 0.158,-0.186 0.165,-0.168C0.172,-0.149 0.181,-0.133 0.193,-0.121C0.205,-0.108 0.218,-0.098 0.234,-0.091C0.25,-0.084 0.266,-0.08 0.283,-0.08C0.297,-0.08 0.311,-0.082 0.324,-0.086C0.338,-0.09 0.351,-0.096 0.364,-0.104C0.377,-0.112 0.389,-0.124 0.4,-0.138L0.463,-0.066C0.438,-0.039 0.409,-0.019 0.377,-0.007C0.344,0.005 0.311,0.012 0.278,0.012Z" style="fill-rule:nonzero;"/>
                </g>
                <g transform="matrix(139.604635,0,0,139.604635,1381.229721,3039)">
                </g>
            </g>
            <g transform="matrix(0.772356,0,0,0.772356,499.601376,393.391487)">
                <g transform="matrix(37.5,0,0,37.5,1291.334375,2687)">
                </g>
                <text x="869.159px" y="2687px" style="font-family:'Lato-Regular', 'Lato', sans-serif;font-size:37.5px;">Life on the W<tspan x="1085.834px " y="2687px ">e</tspan>stern Lak<tspan x="1255.409px " y="2687px ">e</tspan>s</text>
            </g>
        </g>
    </g>
</svg>
